<?xml version="1.0" encoding="UTF-8"?>
<svg width="17px" height="23px" viewBox="0 0 17 23" version="1.1" xmlns="http://www.w3.org/2000/svg" xmlns:xlink="http://www.w3.org/1999/xlink">
    <!-- Generator: Sketch 52.5 (67469) - http://www.bohemiancoding.com/sketch -->
    <title>bag</title>
    <desc>Created with Sketch.</desc>
    <defs>
        <polygon id="path-1" points="8.94653691e-06 0.0332129437 15.3477841 0.0332129437 15.3477841 16.8863295 8.94653691e-06 16.8863295"></polygon>
    </defs>
    <g id="Symbols" stroke="none" strokeWidth="1" fill="none" fillRule="evenodd">
        <g id="CTA" transform="translate(-178.000000, -3.000000)">
            <g id="call-dir">
                <g transform="translate(165.000000, 0.000000)">
                    <g id="bag" transform="translate(13.000000, 3.000000)">
                        <g id="Group-3" transform="translate(0.000000, 4.559420)">
                            <mask id="mask-2" fill="white">
                                <use xlink:href="#path-1"></use>
                            </mask>
                            <g id="Clip-2"></g>
                            <path d="M1.43592812,14.5763271 C1.43592812,14.9984379 1.77142325,15.3637234 2.15165107,15.3637234 L13.1961062,15.3637234 C13.580852,15.3637234 13.9118291,15.0506622 13.9118291,14.5763271 L13.0038003,1.66018233 L2.34400162,1.66018233 L1.43592812,14.5763271 Z M13.2006242,16.886339 L2.15165107,16.886339 C0.957288395,16.886339 8.94653691e-06,15.8380585 8.94653691e-06,14.5241028 L8.94653691e-06,14.4719734 L0.957288395,0.768432348 C1.00649435,0.346274109 1.29278353,0.0332129437 1.67301135,0.0332129437 L13.6747906,0.0332129437 C14.0594917,0.0332129437 14.3457809,0.346274109 14.3905136,0.768432348 L15.347793,14.4719734 L15.347793,14.5241028 C15.3522663,15.8380585 14.3949868,16.886339 13.2006242,16.886339 Z" id="Fill-1" fill="#FFFFFF" mask="url(#mask-2)"></path>
                        </g>
                        <path d="M10.3102346,6.2692029 C9.96623829,6.2692029 9.67031592,5.90337411 9.67031592,5.48743179 L9.67031592,4.1794686 C9.67031592,2.71615345 8.73043542,1.56855356 7.53458747,1.56855356 C6.33873951,1.56855356 5.39885901,2.71615345 5.39885901,4.1794686 L5.39885901,5.48242044 C5.39885901,5.90337411 5.09889715,6.26419155 4.75894038,6.26419155 C4.4189836,6.26419155 4.11902174,5.89836276 4.11902174,5.48242044 L4.11902174,4.1794686 C4.11902174,1.88426882 5.65882596,0 7.53858696,0 C9.41834795,0 10.9581522,1.87925746 10.9581522,4.1794686 L10.9581522,5.48242044 C10.9541527,5.90337411 10.6541908,6.2692029 10.3102346,6.2692029" id="Fill-4" fill="#FFFFFF"></path>
                        <g id="Round" transform="translate(7.650000, 12.750000)">
                            <circle id="Oval" fill="#FFFFFF" cx="4.6573821" cy="4.90656688" r="4.58144008"></circle>
                            <path d="M4.17683994,7.39479789 L4.17683994,5.57443903 L2.34426391,5.57443903 C2.22209218,5.57443903 2.11213762,5.46448447 2.11213762,5.34231274 L2.11213762,4.65815102 C2.11213762,4.53597928 2.22209218,4.42602472 2.34426391,4.42602472 L4.17683994,4.42602472 L4.17683994,2.58123152 C4.17683994,2.45905978 4.28679451,2.36132239 4.40896624,2.36132239 L5.09312796,2.36132239 C5.2152997,2.36132239 5.32525426,2.45905978 5.32525426,2.58123152 L5.32525426,4.42602472 L7.17004746,4.42602472 C7.2922192,4.42602472 7.38995659,4.53597928 7.38995659,4.65815102 L7.38995659,5.34231274 C7.38995659,5.46448447 7.2922192,5.57443903 7.17004746,5.57443903 L5.32525426,5.57443903 L5.32525426,7.39479789 C5.32525426,7.51696963 5.2152997,7.61470701 5.09312796,7.61470701 L4.40896624,7.61470701 C4.28679451,7.61470701 4.17683994,7.51696963 4.17683994,7.39479789 Z" id="+" fill="#529888"></path>
                        </g>
                    </g>
                </g>
            </g>
        </g>
    </g>
</svg>